<?xml version="1.0" encoding="UTF-8"?>
<svg width="512" height="512" viewBox="0 0 512 512" fill="none" xmlns="http://www.w3.org/2000/svg">
  <rect width="512" height="512" rx="128" fill="#1a0745"/>
  <path d="M363 235h21a64 64 0 0 1 0 128h-21" stroke="#9d5cff" stroke-width="42" stroke-linecap="round" stroke-linejoin="round"/>
  <path d="M192 256v128" stroke="#9d5cff" stroke-width="42" stroke-linecap="round" stroke-linejoin="round"/>
  <path d="M277 256v128" stroke="#9d5cff" stroke-width="42" stroke-linecap="round" stroke-linejoin="round"/>
  <path d="M299 160c-21 0-30.72 11-64 11s-43-11-64-11-36.76 11-53 11a53 53 0 0 1 0-106c16.64 0 33.56 11 53 11S201.52 43 235 43s43 32 64 32 36.76-11 53-11a53 53 0 0 1 0 106c-16.64 0-32-11-53-11Z" stroke="#9d5cff" stroke-width="42" stroke-linecap="round" stroke-linejoin="round"/>
  <path d="M107 171v256a43 43 0 0 0 43 43h171a43 43 0 0 0 43-43V171" stroke="#9d5cff" stroke-width="42" stroke-linecap="round" stroke-linejoin="round"/>
</svg> 